<svg width="20" height="18" viewBox="0 0 20 18" fill="none" xmlns="http://www.w3.org/2000/svg">
<path d="M0 2C0 1.46957 0.210714 0.960859 0.585786 0.585786C0.960859 0.210714 1.46957 0 2 0H18C18.5304 0 19.0391 0.210714 19.4142 0.585786C19.7893 0.960859 20 1.46957 20 2V13C20 13.5304 19.7893 14.0391 19.4142 14.4142C19.0391 14.7893 18.5304 15 18 15H13.414L10.707 17.707C10.5195 17.8945 10.2652 17.9998 10 17.9998C9.73484 17.9998 9.48053 17.8945 9.293 17.707L6.586 15H2C1.46957 15 0.960859 14.7893 0.585786 14.4142C0.210714 14.0391 0 13.5304 0 13V2ZM18 2H2V13H7C7.26519 13.0001 7.51951 13.1054 7.707 13.293L10 15.586L12.293 13.293C12.4805 13.1054 12.7348 13.0001 13 13H18V2ZM4 5.5C4 5.23478 4.10536 4.98043 4.29289 4.79289C4.48043 4.60536 4.73478 4.5 5 4.5H15C15.2652 4.5 15.5196 4.60536 15.7071 4.79289C15.8946 4.98043 16 5.23478 16 5.5C16 5.76522 15.8946 6.01957 15.7071 6.20711C15.5196 6.39464 15.2652 6.5 15 6.5H5C4.73478 6.5 4.48043 6.39464 4.29289 6.20711C4.10536 6.01957 4 5.76522 4 5.5ZM4 9.5C4 9.23478 4.10536 8.98043 4.29289 8.79289C4.48043 8.60536 4.73478 8.5 5 8.5H11C11.2652 8.5 11.5196 8.60536 11.7071 8.79289C11.8946 8.98043 12 9.23478 12 9.5C12 9.76522 11.8946 10.0196 11.7071 10.2071C11.5196 10.3946 11.2652 10.5 11 10.5H5C4.73478 10.5 4.48043 10.3946 4.29289 10.2071C4.10536 10.0196 4 9.76522 4 9.5Z" fill="#184867"/>
</svg>
